<svg xmlns="http://www.w3.org/2000/svg" xmlns:xlink="http://www.w3.org/1999/xlink" width="500" zoomAndPan="magnify" viewBox="0 0 375 374.999991" height="500" preserveAspectRatio="xMidYMid meet" version="1.0"><defs><g/><clipPath id="df143f4f76"><rect x="0" width="320" y="0" height="152"/></clipPath><clipPath id="cd3bcc3cef"><rect x="0" width="308" y="0" height="40"/></clipPath></defs><rect x="-37.5" width="450" fill="#ffffff" y="-37.499999" height="449.999989" fill-opacity="1"/><rect x="-37.5" width="450" fill="#ffffff" y="-37.499999" height="449.999989" fill-opacity="1"/><g transform="matrix(1, 0, 0, 1, 32, 111)"><g clip-path="url(#df143f4f76)"><g fill="#480174" fill-opacity="1"><g transform="translate(1.224182, 104.154412)"><g><path d="M 65.046875 0 L 57.125 -40.8125 L 56.75 -44.53125 L 55.546875 -40.6875 L 39.34375 0 L 34.578125 0 L 18.25 -40.546875 L 17.046875 -44.65625 L 16.546875 -40.6875 L 8.40625 0 L 0.125 0 L 12.953125 -63.375 L 17.75 -63.375 L 36.828125 -15.734375 L 55.921875 -63.375 L 60.734375 -63.375 L 73.453125 0 Z M 65.046875 0 "/></g></g></g><g fill="#480174" fill-opacity="1"><g transform="translate(83.66863, 104.154412)"><g><path d="M 46.9375 0 L 39.109375 -19.453125 L 16.671875 -19.453125 L 8.875 0 L 0 0 L 25.546875 -63.375 L 30.46875 -63.375 L 55.8125 0 Z M 27.953125 -47.515625 L 19.8125 -27.59375 L 35.890625 -27.59375 Z M 27.953125 -47.515625 "/></g></g></g><g fill="#480174" fill-opacity="1"><g transform="translate(148.359172, 104.154412)"><g><path d="M 35.046875 0.84375 C 31.992188 0.84375 29.054688 0.457031 26.234375 -0.3125 C 23.410156 -1.082031 20.769531 -2.175781 18.3125 -3.59375 C 15.851562 -5.007812 13.609375 -6.703125 11.578125 -8.671875 C 9.546875 -10.640625 7.804688 -12.832031 6.359375 -15.25 C 4.910156 -17.664062 3.785156 -20.253906 2.984375 -23.015625 C 2.179688 -25.773438 1.78125 -28.660156 1.78125 -31.671875 C 1.78125 -34.660156 2.179688 -37.535156 2.984375 -40.296875 C 3.785156 -43.054688 4.910156 -45.644531 6.359375 -48.0625 C 7.804688 -50.476562 9.546875 -52.675781 11.578125 -54.65625 C 13.609375 -56.632812 15.851562 -58.328125 18.3125 -59.734375 C 20.769531 -61.140625 23.410156 -62.234375 26.234375 -63.015625 C 29.054688 -63.796875 31.992188 -64.1875 35.046875 -64.1875 C 40.835938 -64.1875 46.160156 -62.832031 51.015625 -60.125 C 55.867188 -57.425781 60.144531 -53.421875 63.84375 -48.109375 L 57.125 -43.0625 C 54.15625 -47.363281 50.832031 -50.582031 47.15625 -52.71875 C 43.488281 -54.851562 39.453125 -55.921875 35.046875 -55.921875 C 32.753906 -55.921875 30.550781 -55.632812 28.4375 -55.0625 C 26.332031 -54.488281 24.359375 -53.675781 22.515625 -52.625 C 20.671875 -51.582031 18.988281 -50.320312 17.46875 -48.84375 C 15.957031 -47.375 14.664062 -45.738281 13.59375 -43.9375 C 12.519531 -42.144531 11.6875 -40.210938 11.09375 -38.140625 C 10.5 -36.078125 10.203125 -33.921875 10.203125 -31.671875 C 10.203125 -29.421875 10.5 -27.265625 11.09375 -25.203125 C 11.6875 -23.148438 12.519531 -21.222656 13.59375 -19.421875 C 14.664062 -17.628906 15.957031 -15.992188 17.46875 -14.515625 C 18.988281 -13.046875 20.671875 -11.785156 22.515625 -10.734375 C 24.359375 -9.691406 26.332031 -8.878906 28.4375 -8.296875 C 30.550781 -7.722656 32.753906 -7.4375 35.046875 -7.4375 C 38.046875 -7.4375 40.851562 -7.9375 43.46875 -8.9375 C 46.09375 -9.945312 48.425781 -11.347656 50.46875 -13.140625 C 52.507812 -14.929688 54.207031 -17.050781 55.5625 -19.5 C 56.914062 -21.945312 57.835938 -24.609375 58.328125 -27.484375 L 32.515625 -27.484375 L 32.515625 -35.890625 L 66.96875 -35.890625 C 67.320312 -32.671875 67.25 -29.519531 66.75 -26.4375 C 66.25 -23.363281 65.378906 -20.46875 64.140625 -17.75 C 62.898438 -15.039062 61.316406 -12.539062 59.390625 -10.25 C 57.472656 -7.96875 55.273438 -6.003906 52.796875 -4.359375 C 50.316406 -2.722656 47.582031 -1.445312 44.59375 -0.53125 C 41.601562 0.382812 38.421875 0.84375 35.046875 0.84375 Z M 35.046875 0.84375 "/></g></g></g><g fill="#480174" fill-opacity="1"><g transform="translate(225.998933, 104.154412)"><g><path d="M 5.15625 0 L 5.15625 -63.375 L 13.6875 -63.375 L 13.6875 0 Z M 5.15625 0 "/></g></g></g><g fill="#480174" fill-opacity="1"><g transform="translate(253.716822, 104.154412)"><g><path d="M 54.5 -6.125 C 52.695312 -4.789062 50.957031 -3.679688 49.28125 -2.796875 C 47.613281 -1.910156 45.957031 -1.195312 44.3125 -0.65625 C 42.675781 -0.125 41.019531 0.253906 39.34375 0.484375 C 37.664062 0.722656 35.910156 0.84375 34.078125 0.84375 C 31.128906 0.84375 28.273438 0.453125 25.515625 -0.328125 C 22.765625 -1.109375 20.171875 -2.203125 17.734375 -3.609375 C 15.304688 -5.015625 13.085938 -6.707031 11.078125 -8.6875 C 9.066406 -10.664062 7.335938 -12.859375 5.890625 -15.265625 C 4.441406 -17.671875 3.316406 -20.25 2.515625 -23 C 1.710938 -25.75 1.3125 -28.597656 1.3125 -31.546875 C 1.3125 -34.535156 1.710938 -37.414062 2.515625 -40.1875 C 3.316406 -42.96875 4.441406 -45.5625 5.890625 -47.96875 C 7.335938 -50.382812 9.070312 -52.585938 11.09375 -54.578125 C 13.113281 -56.566406 15.335938 -58.273438 17.765625 -59.703125 C 20.203125 -61.128906 22.8125 -62.234375 25.59375 -63.015625 C 28.375 -63.796875 31.238281 -64.1875 34.1875 -64.1875 C 35.863281 -64.1875 37.53125 -64.066406 39.1875 -63.828125 C 40.851562 -63.597656 42.523438 -63.210938 44.203125 -62.671875 C 45.890625 -62.140625 47.582031 -61.421875 49.28125 -60.515625 C 50.976562 -59.609375 52.71875 -58.476562 54.5 -57.125 L 50.046875 -50.515625 C 48.460938 -51.703125 46.953125 -52.664062 45.515625 -53.40625 C 44.078125 -54.144531 42.695312 -54.71875 41.375 -55.125 C 40.0625 -55.539062 38.789062 -55.816406 37.5625 -55.953125 C 36.332031 -56.085938 35.128906 -56.15625 33.953125 -56.15625 C 31.742188 -56.15625 29.613281 -55.847656 27.5625 -55.234375 C 25.519531 -54.617188 23.601562 -53.753906 21.8125 -52.640625 C 20.019531 -51.535156 18.378906 -50.210938 16.890625 -48.671875 C 15.410156 -47.140625 14.140625 -45.445312 13.078125 -43.59375 C 12.015625 -41.738281 11.191406 -39.765625 10.609375 -37.671875 C 10.023438 -35.585938 9.734375 -33.429688 9.734375 -31.203125 C 9.734375 -29.109375 10.035156 -27.066406 10.640625 -25.078125 C 11.242188 -23.085938 12.082031 -21.195312 13.15625 -19.40625 C 14.226562 -17.625 15.515625 -15.976562 17.015625 -14.46875 C 18.523438 -12.96875 20.175781 -11.671875 21.96875 -10.578125 C 23.769531 -9.484375 25.6875 -8.628906 27.71875 -8.015625 C 29.75 -7.398438 31.828125 -7.09375 33.953125 -7.09375 C 35.128906 -7.09375 36.332031 -7.164062 37.5625 -7.3125 C 38.789062 -7.457031 40.0625 -7.738281 41.375 -8.15625 C 42.695312 -8.582031 44.078125 -9.164062 45.515625 -9.90625 C 46.953125 -10.644531 48.460938 -11.617188 50.046875 -12.828125 Z M 54.5 -6.125 "/></g></g></g></g></g><g transform="matrix(1, 0, 0, 1, 35, 220)"><g clip-path="url(#cd3bcc3cef)"><g fill="#480174" fill-opacity="1"><g transform="translate(0.683156, 27.559492)"><g><path d="M 13.203125 -8.1875 C 13.203125 -7.34375 13.101562 -6.554688 12.90625 -5.828125 C 12.707031 -5.097656 12.421875 -4.425781 12.046875 -3.8125 C 11.679688 -3.207031 11.238281 -2.664062 10.71875 -2.1875 C 10.207031 -1.71875 9.632812 -1.320312 9 -1 C 8.363281 -0.675781 7.671875 -0.425781 6.921875 -0.25 C 6.179688 -0.0820312 5.398438 0 4.578125 0 L 1.25 0 L 1.25 -16.4375 L 4.578125 -16.4375 C 5.410156 -16.4375 6.203125 -16.347656 6.953125 -16.171875 C 7.703125 -16.003906 8.394531 -15.753906 9.03125 -15.421875 C 9.675781 -15.097656 10.253906 -14.695312 10.765625 -14.21875 C 11.273438 -13.75 11.710938 -13.207031 12.078125 -12.59375 C 12.441406 -11.976562 12.71875 -11.300781 12.90625 -10.5625 C 13.101562 -9.820312 13.203125 -9.03125 13.203125 -8.1875 Z M 11.015625 -8.1875 C 11.015625 -9.125 10.851562 -9.972656 10.53125 -10.734375 C 10.21875 -11.492188 9.773438 -12.140625 9.203125 -12.671875 C 8.628906 -13.210938 7.945312 -13.625 7.15625 -13.90625 C 6.363281 -14.195312 5.492188 -14.34375 4.546875 -14.34375 L 3.390625 -14.34375 L 3.390625 -2.046875 L 4.546875 -2.046875 C 5.484375 -2.046875 6.347656 -2.191406 7.140625 -2.484375 C 7.941406 -2.773438 8.625 -3.1875 9.1875 -3.71875 C 9.757812 -4.25 10.207031 -4.890625 10.53125 -5.640625 C 10.851562 -6.398438 11.015625 -7.25 11.015625 -8.1875 Z M 11.015625 -8.1875 "/></g></g></g><g fill="#480174" fill-opacity="1"><g transform="translate(16.496457, 27.559492)"><g><path d="M 3.828125 -15.25 C 3.828125 -15.039062 3.789062 -14.847656 3.71875 -14.671875 C 3.644531 -14.492188 3.539062 -14.335938 3.40625 -14.203125 C 3.269531 -14.078125 3.109375 -13.976562 2.921875 -13.90625 C 2.742188 -13.832031 2.546875 -13.796875 2.328125 -13.796875 C 2.117188 -13.796875 1.925781 -13.832031 1.75 -13.90625 C 1.570312 -13.976562 1.414062 -14.078125 1.28125 -14.203125 C 1.15625 -14.335938 1.054688 -14.492188 0.984375 -14.671875 C 0.910156 -14.847656 0.875 -15.039062 0.875 -15.25 C 0.875 -15.445312 0.910156 -15.632812 0.984375 -15.8125 C 1.054688 -15.988281 1.15625 -16.140625 1.28125 -16.265625 C 1.414062 -16.398438 1.570312 -16.507812 1.75 -16.59375 C 1.925781 -16.675781 2.117188 -16.71875 2.328125 -16.71875 C 2.546875 -16.71875 2.742188 -16.675781 2.921875 -16.59375 C 3.109375 -16.507812 3.269531 -16.398438 3.40625 -16.265625 C 3.539062 -16.140625 3.644531 -15.988281 3.71875 -15.8125 C 3.789062 -15.632812 3.828125 -15.445312 3.828125 -15.25 Z M 1.28125 0 L 1.28125 -11.359375 L 3.390625 -11.359375 L 3.390625 0 Z M 1.28125 0 "/></g></g></g><g fill="#480174" fill-opacity="1"><g transform="translate(23.46508, 27.559492)"><g><path d="M 12.203125 -1.21875 C 12.203125 -0.582031 12.144531 0.0351562 12.03125 0.640625 C 11.925781 1.253906 11.757812 1.832031 11.53125 2.375 C 11.3125 2.914062 11.035156 3.414062 10.703125 3.875 C 10.378906 4.332031 9.992188 4.722656 9.546875 5.046875 C 9.109375 5.378906 8.613281 5.640625 8.0625 5.828125 C 7.507812 6.015625 6.90625 6.109375 6.25 6.109375 C 5.757812 6.109375 5.273438 6.054688 4.796875 5.953125 C 4.328125 5.859375 3.878906 5.710938 3.453125 5.515625 C 3.023438 5.328125 2.628906 5.082031 2.265625 4.78125 C 1.910156 4.476562 1.59375 4.125 1.3125 3.71875 C 1.039062 3.320312 0.820312 2.867188 0.65625 2.359375 C 0.488281 1.847656 0.382812 1.28125 0.34375 0.65625 L 2.390625 0.65625 C 2.453125 1.25 2.585938 1.765625 2.796875 2.203125 C 3.003906 2.648438 3.273438 3.019531 3.609375 3.3125 C 3.941406 3.613281 4.328125 3.835938 4.765625 3.984375 C 5.203125 4.128906 5.664062 4.203125 6.15625 4.203125 C 6.726562 4.203125 7.222656 4.132812 7.640625 4 C 8.066406 3.875 8.425781 3.691406 8.71875 3.453125 C 9.019531 3.210938 9.257812 2.929688 9.4375 2.609375 C 9.625 2.296875 9.769531 1.945312 9.875 1.5625 C 9.976562 1.175781 10.046875 0.765625 10.078125 0.328125 C 10.117188 -0.0976562 10.140625 -0.539062 10.140625 -1 C 9.597656 -0.550781 9 -0.21875 8.34375 0 C 7.695312 0.226562 7.019531 0.34375 6.3125 0.34375 C 5.726562 0.34375 5.179688 0.265625 4.671875 0.109375 C 4.160156 -0.0351562 3.691406 -0.242188 3.265625 -0.515625 C 2.835938 -0.785156 2.453125 -1.101562 2.109375 -1.46875 C 1.773438 -1.84375 1.488281 -2.25 1.25 -2.6875 C 1.019531 -3.132812 0.84375 -3.609375 0.71875 -4.109375 C 0.59375 -4.609375 0.53125 -5.113281 0.53125 -5.625 C 0.53125 -6.164062 0.59375 -6.691406 0.71875 -7.203125 C 0.851562 -7.710938 1.046875 -8.1875 1.296875 -8.625 C 1.546875 -9.0625 1.84375 -9.460938 2.1875 -9.828125 C 2.539062 -10.191406 2.9375 -10.503906 3.375 -10.765625 C 3.820312 -11.023438 4.300781 -11.222656 4.8125 -11.359375 C 5.332031 -11.503906 5.882812 -11.578125 6.46875 -11.578125 C 7.894531 -11.578125 9.117188 -11.132812 10.140625 -10.25 L 10.140625 -11.359375 L 12.203125 -11.359375 Z M 10.203125 -5.828125 C 10.203125 -6.359375 10.109375 -6.859375 9.921875 -7.328125 C 9.742188 -7.796875 9.484375 -8.203125 9.140625 -8.546875 C 8.804688 -8.890625 8.398438 -9.160156 7.921875 -9.359375 C 7.441406 -9.554688 6.90625 -9.65625 6.3125 -9.65625 C 5.78125 -9.65625 5.285156 -9.546875 4.828125 -9.328125 C 4.378906 -9.109375 3.988281 -8.816406 3.65625 -8.453125 C 3.332031 -8.085938 3.078125 -7.664062 2.890625 -7.1875 C 2.703125 -6.71875 2.609375 -6.222656 2.609375 -5.703125 C 2.609375 -5.140625 2.695312 -4.609375 2.875 -4.109375 C 3.050781 -3.609375 3.304688 -3.171875 3.640625 -2.796875 C 3.972656 -2.421875 4.375 -2.125 4.84375 -1.90625 C 5.3125 -1.695312 5.832031 -1.59375 6.40625 -1.59375 C 7.019531 -1.59375 7.5625 -1.703125 8.03125 -1.921875 C 8.5 -2.140625 8.894531 -2.4375 9.21875 -2.8125 C 9.539062 -3.195312 9.785156 -3.644531 9.953125 -4.15625 C 10.117188 -4.675781 10.203125 -5.234375 10.203125 -5.828125 Z M 10.203125 -5.828125 "/></g></g></g><g fill="#480174" fill-opacity="1"><g transform="translate(39.118812, 27.559492)"><g><path d="M 3.828125 -15.25 C 3.828125 -15.039062 3.789062 -14.847656 3.71875 -14.671875 C 3.644531 -14.492188 3.539062 -14.335938 3.40625 -14.203125 C 3.269531 -14.078125 3.109375 -13.976562 2.921875 -13.90625 C 2.742188 -13.832031 2.546875 -13.796875 2.328125 -13.796875 C 2.117188 -13.796875 1.925781 -13.832031 1.75 -13.90625 C 1.570312 -13.976562 1.414062 -14.078125 1.28125 -14.203125 C 1.15625 -14.335938 1.054688 -14.492188 0.984375 -14.671875 C 0.910156 -14.847656 0.875 -15.039062 0.875 -15.25 C 0.875 -15.445312 0.910156 -15.632812 0.984375 -15.8125 C 1.054688 -15.988281 1.15625 -16.140625 1.28125 -16.265625 C 1.414062 -16.398438 1.570312 -16.507812 1.75 -16.59375 C 1.925781 -16.675781 2.117188 -16.71875 2.328125 -16.71875 C 2.546875 -16.71875 2.742188 -16.675781 2.921875 -16.59375 C 3.109375 -16.507812 3.269531 -16.398438 3.40625 -16.265625 C 3.539062 -16.140625 3.644531 -15.988281 3.71875 -15.8125 C 3.789062 -15.632812 3.828125 -15.445312 3.828125 -15.25 Z M 1.28125 0 L 1.28125 -11.359375 L 3.390625 -11.359375 L 3.390625 0 Z M 1.28125 0 "/></g></g></g><g fill="#480174" fill-opacity="1"><g transform="translate(46.087436, 27.559492)"><g><path d="M 4.203125 -9.40625 L 4.203125 0 L 2.125 0 L 2.125 -9.40625 L 0.4375 -9.40625 L 0.4375 -11.359375 L 2.125 -11.359375 L 2.125 -15.46875 L 4.203125 -15.46875 L 4.203125 -11.359375 L 6.5625 -11.359375 L 6.5625 -9.40625 Z M 4.203125 -9.40625 "/></g></g></g><g fill="#480174" fill-opacity="1"><g transform="translate(55.084864, 27.559492)"><g><path d="M 10.078125 0 L 10.078125 -1.109375 C 9.097656 -0.222656 7.875 0.21875 6.40625 0.21875 C 5.5 0.21875 4.679688 0.0625 3.953125 -0.25 C 3.234375 -0.570312 2.617188 -1.003906 2.109375 -1.546875 C 1.597656 -2.097656 1.207031 -2.738281 0.9375 -3.46875 C 0.664062 -4.195312 0.53125 -4.972656 0.53125 -5.796875 C 0.53125 -6.609375 0.664062 -7.367188 0.9375 -8.078125 C 1.207031 -8.796875 1.59375 -9.414062 2.09375 -9.9375 C 2.601562 -10.46875 3.210938 -10.882812 3.921875 -11.1875 C 4.640625 -11.488281 5.453125 -11.640625 6.359375 -11.640625 C 7.816406 -11.640625 9.054688 -11.203125 10.078125 -10.328125 L 10.078125 -11.421875 L 12.140625 -11.421875 L 12.140625 0 Z M 10.171875 -5.875 C 10.171875 -6.425781 10.082031 -6.9375 9.90625 -7.40625 C 9.726562 -7.875 9.46875 -8.28125 9.125 -8.625 C 8.789062 -8.96875 8.382812 -9.234375 7.90625 -9.421875 C 7.4375 -9.617188 6.90625 -9.71875 6.3125 -9.71875 C 5.78125 -9.71875 5.285156 -9.609375 4.828125 -9.390625 C 4.367188 -9.171875 3.972656 -8.878906 3.640625 -8.515625 C 3.304688 -8.160156 3.046875 -7.742188 2.859375 -7.265625 C 2.671875 -6.796875 2.578125 -6.304688 2.578125 -5.796875 C 2.578125 -5.242188 2.664062 -4.71875 2.84375 -4.21875 C 3.019531 -3.726562 3.269531 -3.296875 3.59375 -2.921875 C 3.925781 -2.546875 4.328125 -2.25 4.796875 -2.03125 C 5.265625 -1.8125 5.796875 -1.703125 6.390625 -1.703125 C 6.984375 -1.703125 7.515625 -1.8125 7.984375 -2.03125 C 8.453125 -2.25 8.847656 -2.546875 9.171875 -2.921875 C 9.503906 -3.296875 9.753906 -3.734375 9.921875 -4.234375 C 10.085938 -4.742188 10.171875 -5.289062 10.171875 -5.875 Z M 10.171875 -5.875 "/></g></g></g><g fill="#480174" fill-opacity="1"><g transform="translate(70.708202, 27.559492)"><g><path d="M 1.28125 0 L 1.28125 -18.609375 L 3.390625 -18.609375 L 3.390625 0 Z M 1.28125 0 "/></g></g></g><g fill="#480174" fill-opacity="1"><g transform="translate(77.676825, 27.559492)"><g/></g></g><g fill="#480174" fill-opacity="1"><g transform="translate(87.760841, 27.559492)"><g><path d="M 16.875 0 L 14.8125 -10.578125 L 14.71875 -11.546875 L 14.40625 -10.5625 L 10.203125 0 L 8.96875 0 L 4.734375 -10.515625 L 4.421875 -11.578125 L 4.296875 -10.5625 L 2.1875 0 L 0.03125 0 L 3.359375 -16.4375 L 4.609375 -16.4375 L 9.546875 -4.078125 L 14.5 -16.4375 L 15.75 -16.4375 L 19.046875 0 Z M 16.875 0 "/></g></g></g><g fill="#480174" fill-opacity="1"><g transform="translate(109.143858, 27.559492)"><g><path d="M 10.078125 0 L 10.078125 -1.109375 C 9.097656 -0.222656 7.875 0.21875 6.40625 0.21875 C 5.5 0.21875 4.679688 0.0625 3.953125 -0.25 C 3.234375 -0.570312 2.617188 -1.003906 2.109375 -1.546875 C 1.597656 -2.097656 1.207031 -2.738281 0.9375 -3.46875 C 0.664062 -4.195312 0.53125 -4.972656 0.53125 -5.796875 C 0.53125 -6.609375 0.664062 -7.367188 0.9375 -8.078125 C 1.207031 -8.796875 1.59375 -9.414062 2.09375 -9.9375 C 2.601562 -10.46875 3.210938 -10.882812 3.921875 -11.1875 C 4.640625 -11.488281 5.453125 -11.640625 6.359375 -11.640625 C 7.816406 -11.640625 9.054688 -11.203125 10.078125 -10.328125 L 10.078125 -11.421875 L 12.140625 -11.421875 L 12.140625 0 Z M 10.171875 -5.875 C 10.171875 -6.425781 10.082031 -6.9375 9.90625 -7.40625 C 9.726562 -7.875 9.46875 -8.28125 9.125 -8.625 C 8.789062 -8.96875 8.382812 -9.234375 7.90625 -9.421875 C 7.4375 -9.617188 6.90625 -9.71875 6.3125 -9.71875 C 5.78125 -9.71875 5.285156 -9.609375 4.828125 -9.390625 C 4.367188 -9.171875 3.972656 -8.878906 3.640625 -8.515625 C 3.304688 -8.160156 3.046875 -7.742188 2.859375 -7.265625 C 2.671875 -6.796875 2.578125 -6.304688 2.578125 -5.796875 C 2.578125 -5.242188 2.664062 -4.71875 2.84375 -4.21875 C 3.019531 -3.726562 3.269531 -3.296875 3.59375 -2.921875 C 3.925781 -2.546875 4.328125 -2.25 4.796875 -2.03125 C 5.265625 -1.8125 5.796875 -1.703125 6.390625 -1.703125 C 6.984375 -1.703125 7.515625 -1.8125 7.984375 -2.03125 C 8.453125 -2.25 8.847656 -2.546875 9.171875 -2.921875 C 9.503906 -3.296875 9.753906 -3.734375 9.921875 -4.234375 C 10.085938 -4.742188 10.171875 -5.289062 10.171875 -5.875 Z M 10.171875 -5.875 "/></g></g></g><g fill="#480174" fill-opacity="1"><g transform="translate(124.767195, 27.559492)"><g><path d="M 6.28125 -9.171875 C 6.15625 -9.242188 6.046875 -9.300781 5.953125 -9.34375 C 5.859375 -9.382812 5.78125 -9.410156 5.71875 -9.421875 C 5.65625 -9.441406 5.601562 -9.453125 5.5625 -9.453125 C 5.53125 -9.453125 5.503906 -9.453125 5.484375 -9.453125 C 5.160156 -9.453125 4.882812 -9.394531 4.65625 -9.28125 C 4.4375 -9.164062 4.242188 -9.007812 4.078125 -8.8125 C 3.921875 -8.613281 3.789062 -8.382812 3.6875 -8.125 C 3.582031 -7.863281 3.5 -7.585938 3.4375 -7.296875 C 3.382812 -7.015625 3.347656 -6.722656 3.328125 -6.421875 C 3.304688 -6.117188 3.296875 -5.832031 3.296875 -5.5625 L 3.296875 0.03125 L 1.21875 0.03125 L 1.21875 -11.359375 L 3.296875 -11.359375 L 3.296875 -10.296875 C 3.410156 -10.460938 3.550781 -10.617188 3.71875 -10.765625 C 3.882812 -10.921875 4.0625 -11.054688 4.25 -11.171875 C 4.4375 -11.296875 4.632812 -11.394531 4.84375 -11.46875 C 5.050781 -11.539062 5.265625 -11.578125 5.484375 -11.578125 C 5.597656 -11.578125 5.710938 -11.570312 5.828125 -11.5625 C 5.953125 -11.5625 6.085938 -11.546875 6.234375 -11.515625 C 6.378906 -11.484375 6.539062 -11.441406 6.71875 -11.390625 C 6.90625 -11.335938 7.125 -11.265625 7.375 -11.171875 Z M 6.28125 -9.171875 "/></g></g></g><g fill="#480174" fill-opacity="1"><g transform="translate(134.288921, 27.559492)"><g><path d="M 8.375 0 L 3.390625 -5.046875 L 3.296875 -4.953125 L 3.296875 0 L 1.21875 0 L 1.21875 -18.578125 L 3.296875 -18.578125 L 3.296875 -7.84375 L 6.84375 -11.390625 L 9.65625 -11.390625 L 4.796875 -6.4375 L 11.203125 0 Z M 8.375 0 "/></g></g></g><g fill="#480174" fill-opacity="1"><g transform="translate(147.328762, 27.559492)"><g><path d="M 2.609375 -5.140625 C 2.671875 -4.597656 2.804688 -4.113281 3.015625 -3.6875 C 3.222656 -3.257812 3.492188 -2.894531 3.828125 -2.59375 C 4.171875 -2.300781 4.5625 -2.070312 5 -1.90625 C 5.445312 -1.75 5.9375 -1.671875 6.46875 -1.671875 C 7.925781 -1.671875 9.148438 -2.523438 10.140625 -4.234375 L 11.921875 -3.265625 C 11.578125 -2.648438 11.203125 -2.117188 10.796875 -1.671875 C 10.398438 -1.234375 9.96875 -0.867188 9.5 -0.578125 C 9.03125 -0.296875 8.53125 -0.0859375 8 0.046875 C 7.476562 0.179688 6.929688 0.25 6.359375 0.25 C 5.753906 0.25 5.191406 0.175781 4.671875 0.03125 C 4.148438 -0.113281 3.675781 -0.316406 3.25 -0.578125 C 2.820312 -0.847656 2.4375 -1.164062 2.09375 -1.53125 C 1.757812 -1.90625 1.472656 -2.3125 1.234375 -2.75 C 1.003906 -3.195312 0.828125 -3.671875 0.703125 -4.171875 C 0.585938 -4.679688 0.53125 -5.203125 0.53125 -5.734375 C 0.53125 -6.253906 0.585938 -6.757812 0.703125 -7.25 C 0.828125 -7.75 1.003906 -8.21875 1.234375 -8.65625 C 1.472656 -9.09375 1.757812 -9.492188 2.09375 -9.859375 C 2.4375 -10.222656 2.820312 -10.535156 3.25 -10.796875 C 3.675781 -11.066406 4.148438 -11.273438 4.671875 -11.421875 C 5.191406 -11.566406 5.753906 -11.640625 6.359375 -11.640625 C 7.253906 -11.640625 8.054688 -11.472656 8.765625 -11.140625 C 9.472656 -10.816406 10.070312 -10.363281 10.5625 -9.78125 C 11.050781 -9.207031 11.425781 -8.519531 11.6875 -7.71875 C 11.945312 -6.925781 12.078125 -6.066406 12.078125 -5.140625 Z M 9.90625 -7.03125 C 9.789062 -7.414062 9.617188 -7.769531 9.390625 -8.09375 C 9.171875 -8.425781 8.90625 -8.707031 8.59375 -8.9375 C 8.289062 -9.175781 7.945312 -9.363281 7.5625 -9.5 C 7.1875 -9.644531 6.785156 -9.71875 6.359375 -9.71875 C 5.921875 -9.71875 5.503906 -9.644531 5.109375 -9.5 C 4.722656 -9.363281 4.367188 -9.175781 4.046875 -8.9375 C 3.734375 -8.707031 3.457031 -8.425781 3.21875 -8.09375 C 2.988281 -7.769531 2.816406 -7.414062 2.703125 -7.03125 Z M 9.90625 -7.03125 "/></g></g></g><g fill="#480174" fill-opacity="1"><g transform="translate(162.237839, 27.559492)"><g><path d="M 4.203125 -9.40625 L 4.203125 0 L 2.125 0 L 2.125 -9.40625 L 0.4375 -9.40625 L 0.4375 -11.359375 L 2.125 -11.359375 L 2.125 -15.46875 L 4.203125 -15.46875 L 4.203125 -11.359375 L 6.5625 -11.359375 L 6.5625 -9.40625 Z M 4.203125 -9.40625 "/></g></g></g><g fill="#480174" fill-opacity="1"><g transform="translate(171.235267, 27.559492)"><g><path d="M 3.828125 -15.25 C 3.828125 -15.039062 3.789062 -14.847656 3.71875 -14.671875 C 3.644531 -14.492188 3.539062 -14.335938 3.40625 -14.203125 C 3.269531 -14.078125 3.109375 -13.976562 2.921875 -13.90625 C 2.742188 -13.832031 2.546875 -13.796875 2.328125 -13.796875 C 2.117188 -13.796875 1.925781 -13.832031 1.75 -13.90625 C 1.570312 -13.976562 1.414062 -14.078125 1.28125 -14.203125 C 1.15625 -14.335938 1.054688 -14.492188 0.984375 -14.671875 C 0.910156 -14.847656 0.875 -15.039062 0.875 -15.25 C 0.875 -15.445312 0.910156 -15.632812 0.984375 -15.8125 C 1.054688 -15.988281 1.15625 -16.140625 1.28125 -16.265625 C 1.414062 -16.398438 1.570312 -16.507812 1.75 -16.59375 C 1.925781 -16.675781 2.117188 -16.71875 2.328125 -16.71875 C 2.546875 -16.71875 2.742188 -16.675781 2.921875 -16.59375 C 3.109375 -16.507812 3.269531 -16.398438 3.40625 -16.265625 C 3.539062 -16.140625 3.644531 -15.988281 3.71875 -15.8125 C 3.789062 -15.632812 3.828125 -15.445312 3.828125 -15.25 Z M 1.28125 0 L 1.28125 -11.359375 L 3.390625 -11.359375 L 3.390625 0 Z M 1.28125 0 "/></g></g></g><g fill="#480174" fill-opacity="1"><g transform="translate(178.203891, 27.559492)"><g><path d="M 8.28125 0 L 8.28125 -6.71875 C 8.28125 -7.25 8.253906 -7.695312 8.203125 -8.0625 C 8.148438 -8.4375 8.046875 -8.738281 7.890625 -8.96875 C 7.734375 -9.207031 7.507812 -9.378906 7.21875 -9.484375 C 6.925781 -9.597656 6.546875 -9.65625 6.078125 -9.65625 C 5.753906 -9.65625 5.460938 -9.59375 5.203125 -9.46875 C 4.941406 -9.34375 4.707031 -9.175781 4.5 -8.96875 C 4.289062 -8.769531 4.109375 -8.535156 3.953125 -8.265625 C 3.796875 -7.992188 3.664062 -7.707031 3.5625 -7.40625 C 3.46875 -7.101562 3.394531 -6.796875 3.34375 -6.484375 C 3.289062 -6.179688 3.265625 -5.882812 3.265625 -5.59375 L 3.265625 0 L 1.21875 0 L 1.21875 -11.359375 L 3.265625 -11.359375 L 3.265625 -10.203125 C 3.691406 -10.640625 4.144531 -10.984375 4.625 -11.234375 C 5.101562 -11.484375 5.613281 -11.609375 6.15625 -11.609375 C 6.988281 -11.609375 7.675781 -11.488281 8.21875 -11.25 C 8.757812 -11.007812 9.1875 -10.675781 9.5 -10.25 C 9.820312 -9.820312 10.046875 -9.304688 10.171875 -8.703125 C 10.296875 -8.109375 10.359375 -7.445312 10.359375 -6.71875 L 10.359375 0 Z M 8.28125 0 "/></g></g></g><g fill="#480174" fill-opacity="1"><g transform="translate(192.087167, 27.559492)"><g><path d="M 12.203125 -1.21875 C 12.203125 -0.582031 12.144531 0.0351562 12.03125 0.640625 C 11.925781 1.253906 11.757812 1.832031 11.53125 2.375 C 11.3125 2.914062 11.035156 3.414062 10.703125 3.875 C 10.378906 4.332031 9.992188 4.722656 9.546875 5.046875 C 9.109375 5.378906 8.613281 5.640625 8.0625 5.828125 C 7.507812 6.015625 6.90625 6.109375 6.25 6.109375 C 5.757812 6.109375 5.273438 6.054688 4.796875 5.953125 C 4.328125 5.859375 3.878906 5.710938 3.453125 5.515625 C 3.023438 5.328125 2.628906 5.082031 2.265625 4.78125 C 1.910156 4.476562 1.59375 4.125 1.3125 3.71875 C 1.039062 3.320312 0.820312 2.867188 0.65625 2.359375 C 0.488281 1.847656 0.382812 1.28125 0.34375 0.65625 L 2.390625 0.65625 C 2.453125 1.25 2.585938 1.765625 2.796875 2.203125 C 3.003906 2.648438 3.273438 3.019531 3.609375 3.3125 C 3.941406 3.613281 4.328125 3.835938 4.765625 3.984375 C 5.203125 4.128906 5.664062 4.203125 6.15625 4.203125 C 6.726562 4.203125 7.222656 4.132812 7.640625 4 C 8.066406 3.875 8.425781 3.691406 8.71875 3.453125 C 9.019531 3.210938 9.257812 2.929688 9.4375 2.609375 C 9.625 2.296875 9.769531 1.945312 9.875 1.5625 C 9.976562 1.175781 10.046875 0.765625 10.078125 0.328125 C 10.117188 -0.0976562 10.140625 -0.539062 10.140625 -1 C 9.597656 -0.550781 9 -0.21875 8.34375 0 C 7.695312 0.226562 7.019531 0.34375 6.3125 0.34375 C 5.726562 0.34375 5.179688 0.265625 4.671875 0.109375 C 4.160156 -0.0351562 3.691406 -0.242188 3.265625 -0.515625 C 2.835938 -0.785156 2.453125 -1.101562 2.109375 -1.46875 C 1.773438 -1.84375 1.488281 -2.25 1.25 -2.6875 C 1.019531 -3.132812 0.84375 -3.609375 0.71875 -4.109375 C 0.59375 -4.609375 0.53125 -5.113281 0.53125 -5.625 C 0.53125 -6.164062 0.59375 -6.691406 0.71875 -7.203125 C 0.851562 -7.710938 1.046875 -8.1875 1.296875 -8.625 C 1.546875 -9.0625 1.84375 -9.460938 2.1875 -9.828125 C 2.539062 -10.191406 2.9375 -10.503906 3.375 -10.765625 C 3.820312 -11.023438 4.300781 -11.222656 4.8125 -11.359375 C 5.332031 -11.503906 5.882812 -11.578125 6.46875 -11.578125 C 7.894531 -11.578125 9.117188 -11.132812 10.140625 -10.25 L 10.140625 -11.359375 L 12.203125 -11.359375 Z M 10.203125 -5.828125 C 10.203125 -6.359375 10.109375 -6.859375 9.921875 -7.328125 C 9.742188 -7.796875 9.484375 -8.203125 9.140625 -8.546875 C 8.804688 -8.890625 8.398438 -9.160156 7.921875 -9.359375 C 7.441406 -9.554688 6.90625 -9.65625 6.3125 -9.65625 C 5.78125 -9.65625 5.285156 -9.546875 4.828125 -9.328125 C 4.378906 -9.109375 3.988281 -8.816406 3.65625 -8.453125 C 3.332031 -8.085938 3.078125 -7.664062 2.890625 -7.1875 C 2.703125 -6.71875 2.609375 -6.222656 2.609375 -5.703125 C 2.609375 -5.140625 2.695312 -4.609375 2.875 -4.109375 C 3.050781 -3.609375 3.304688 -3.171875 3.640625 -2.796875 C 3.972656 -2.421875 4.375 -2.125 4.84375 -1.90625 C 5.3125 -1.695312 5.832031 -1.59375 6.40625 -1.59375 C 7.019531 -1.59375 7.5625 -1.703125 8.03125 -1.921875 C 8.5 -2.140625 8.894531 -2.4375 9.21875 -2.8125 C 9.539062 -3.195312 9.785156 -3.644531 9.953125 -4.15625 C 10.117188 -4.675781 10.203125 -5.234375 10.203125 -5.828125 Z M 10.203125 -5.828125 "/></g></g></g><g fill="#480174" fill-opacity="1"><g transform="translate(207.740899, 27.559492)"><g/></g></g><g fill="#480174" fill-opacity="1"><g transform="translate(217.824916, 27.559492)"><g><path d="M 12.171875 0 L 10.140625 -5.046875 L 4.328125 -5.046875 L 2.296875 0 L 0 0 L 6.625 -16.4375 L 7.90625 -16.4375 L 14.46875 0 Z M 7.25 -12.328125 L 5.140625 -7.15625 L 9.3125 -7.15625 Z M 7.25 -12.328125 "/></g></g></g><g fill="#480174" fill-opacity="1"><g transform="translate(234.603229, 27.559492)"><g><path d="M 12.203125 -1.21875 C 12.203125 -0.582031 12.144531 0.0351562 12.03125 0.640625 C 11.925781 1.253906 11.757812 1.832031 11.53125 2.375 C 11.3125 2.914062 11.035156 3.414062 10.703125 3.875 C 10.378906 4.332031 9.992188 4.722656 9.546875 5.046875 C 9.109375 5.378906 8.613281 5.640625 8.0625 5.828125 C 7.507812 6.015625 6.90625 6.109375 6.25 6.109375 C 5.757812 6.109375 5.273438 6.054688 4.796875 5.953125 C 4.328125 5.859375 3.878906 5.710938 3.453125 5.515625 C 3.023438 5.328125 2.628906 5.082031 2.265625 4.78125 C 1.910156 4.476562 1.59375 4.125 1.3125 3.71875 C 1.039062 3.320312 0.820312 2.867188 0.65625 2.359375 C 0.488281 1.847656 0.382812 1.28125 0.34375 0.65625 L 2.390625 0.65625 C 2.453125 1.25 2.585938 1.765625 2.796875 2.203125 C 3.003906 2.648438 3.273438 3.019531 3.609375 3.3125 C 3.941406 3.613281 4.328125 3.835938 4.765625 3.984375 C 5.203125 4.128906 5.664062 4.203125 6.15625 4.203125 C 6.726562 4.203125 7.222656 4.132812 7.640625 4 C 8.066406 3.875 8.425781 3.691406 8.71875 3.453125 C 9.019531 3.210938 9.257812 2.929688 9.4375 2.609375 C 9.625 2.296875 9.769531 1.945312 9.875 1.5625 C 9.976562 1.175781 10.046875 0.765625 10.078125 0.328125 C 10.117188 -0.0976562 10.140625 -0.539062 10.140625 -1 C 9.597656 -0.550781 9 -0.21875 8.34375 0 C 7.695312 0.226562 7.019531 0.34375 6.3125 0.34375 C 5.726562 0.34375 5.179688 0.265625 4.671875 0.109375 C 4.160156 -0.0351562 3.691406 -0.242188 3.265625 -0.515625 C 2.835938 -0.785156 2.453125 -1.101562 2.109375 -1.46875 C 1.773438 -1.84375 1.488281 -2.25 1.25 -2.6875 C 1.019531 -3.132812 0.84375 -3.609375 0.71875 -4.109375 C 0.59375 -4.609375 0.53125 -5.113281 0.53125 -5.625 C 0.53125 -6.164062 0.59375 -6.691406 0.71875 -7.203125 C 0.851562 -7.710938 1.046875 -8.1875 1.296875 -8.625 C 1.546875 -9.0625 1.84375 -9.460938 2.1875 -9.828125 C 2.539062 -10.191406 2.9375 -10.503906 3.375 -10.765625 C 3.820312 -11.023438 4.300781 -11.222656 4.8125 -11.359375 C 5.332031 -11.503906 5.882812 -11.578125 6.46875 -11.578125 C 7.894531 -11.578125 9.117188 -11.132812 10.140625 -10.25 L 10.140625 -11.359375 L 12.203125 -11.359375 Z M 10.203125 -5.828125 C 10.203125 -6.359375 10.109375 -6.859375 9.921875 -7.328125 C 9.742188 -7.796875 9.484375 -8.203125 9.140625 -8.546875 C 8.804688 -8.890625 8.398438 -9.160156 7.921875 -9.359375 C 7.441406 -9.554688 6.90625 -9.65625 6.3125 -9.65625 C 5.78125 -9.65625 5.285156 -9.546875 4.828125 -9.328125 C 4.378906 -9.109375 3.988281 -8.816406 3.65625 -8.453125 C 3.332031 -8.085938 3.078125 -7.664062 2.890625 -7.1875 C 2.703125 -6.71875 2.609375 -6.222656 2.609375 -5.703125 C 2.609375 -5.140625 2.695312 -4.609375 2.875 -4.109375 C 3.050781 -3.609375 3.304688 -3.171875 3.640625 -2.796875 C 3.972656 -2.421875 4.375 -2.125 4.84375 -1.90625 C 5.3125 -1.695312 5.832031 -1.59375 6.40625 -1.59375 C 7.019531 -1.59375 7.5625 -1.703125 8.03125 -1.921875 C 8.5 -2.140625 8.894531 -2.4375 9.21875 -2.8125 C 9.539062 -3.195312 9.785156 -3.644531 9.953125 -4.15625 C 10.117188 -4.675781 10.203125 -5.234375 10.203125 -5.828125 Z M 10.203125 -5.828125 "/></g></g></g><g fill="#480174" fill-opacity="1"><g transform="translate(250.256961, 27.559492)"><g><path d="M 2.609375 -5.140625 C 2.671875 -4.597656 2.804688 -4.113281 3.015625 -3.6875 C 3.222656 -3.257812 3.492188 -2.894531 3.828125 -2.59375 C 4.171875 -2.300781 4.5625 -2.070312 5 -1.90625 C 5.445312 -1.75 5.9375 -1.671875 6.46875 -1.671875 C 7.925781 -1.671875 9.148438 -2.523438 10.140625 -4.234375 L 11.921875 -3.265625 C 11.578125 -2.648438 11.203125 -2.117188 10.796875 -1.671875 C 10.398438 -1.234375 9.96875 -0.867188 9.5 -0.578125 C 9.03125 -0.296875 8.53125 -0.0859375 8 0.046875 C 7.476562 0.179688 6.929688 0.25 6.359375 0.25 C 5.753906 0.25 5.191406 0.175781 4.671875 0.03125 C 4.148438 -0.113281 3.675781 -0.316406 3.25 -0.578125 C 2.820312 -0.847656 2.4375 -1.164062 2.09375 -1.53125 C 1.757812 -1.90625 1.472656 -2.3125 1.234375 -2.75 C 1.003906 -3.195312 0.828125 -3.671875 0.703125 -4.171875 C 0.585938 -4.679688 0.53125 -5.203125 0.53125 -5.734375 C 0.53125 -6.253906 0.585938 -6.757812 0.703125 -7.25 C 0.828125 -7.75 1.003906 -8.21875 1.234375 -8.65625 C 1.472656 -9.09375 1.757812 -9.492188 2.09375 -9.859375 C 2.4375 -10.222656 2.820312 -10.535156 3.25 -10.796875 C 3.675781 -11.066406 4.148438 -11.273438 4.671875 -11.421875 C 5.191406 -11.566406 5.753906 -11.640625 6.359375 -11.640625 C 7.253906 -11.640625 8.054688 -11.472656 8.765625 -11.140625 C 9.472656 -10.816406 10.070312 -10.363281 10.5625 -9.78125 C 11.050781 -9.207031 11.425781 -8.519531 11.6875 -7.71875 C 11.945312 -6.925781 12.078125 -6.066406 12.078125 -5.140625 Z M 9.90625 -7.03125 C 9.789062 -7.414062 9.617188 -7.769531 9.390625 -8.09375 C 9.171875 -8.425781 8.90625 -8.707031 8.59375 -8.9375 C 8.289062 -9.175781 7.945312 -9.363281 7.5625 -9.5 C 7.1875 -9.644531 6.785156 -9.71875 6.359375 -9.71875 C 5.921875 -9.71875 5.503906 -9.644531 5.109375 -9.5 C 4.722656 -9.363281 4.367188 -9.175781 4.046875 -8.9375 C 3.734375 -8.707031 3.457031 -8.425781 3.21875 -8.09375 C 2.988281 -7.769531 2.816406 -7.414062 2.703125 -7.03125 Z M 9.90625 -7.03125 "/></g></g></g><g fill="#480174" fill-opacity="1"><g transform="translate(265.166038, 27.559492)"><g><path d="M 8.28125 0 L 8.28125 -6.71875 C 8.28125 -7.25 8.253906 -7.695312 8.203125 -8.0625 C 8.148438 -8.4375 8.046875 -8.738281 7.890625 -8.96875 C 7.734375 -9.207031 7.507812 -9.378906 7.21875 -9.484375 C 6.925781 -9.597656 6.546875 -9.65625 6.078125 -9.65625 C 5.753906 -9.65625 5.460938 -9.59375 5.203125 -9.46875 C 4.941406 -9.34375 4.707031 -9.175781 4.5 -8.96875 C 4.289062 -8.769531 4.109375 -8.535156 3.953125 -8.265625 C 3.796875 -7.992188 3.664062 -7.707031 3.5625 -7.40625 C 3.46875 -7.101562 3.394531 -6.796875 3.34375 -6.484375 C 3.289062 -6.179688 3.265625 -5.882812 3.265625 -5.59375 L 3.265625 0 L 1.21875 0 L 1.21875 -11.359375 L 3.265625 -11.359375 L 3.265625 -10.203125 C 3.691406 -10.640625 4.144531 -10.984375 4.625 -11.234375 C 5.101562 -11.484375 5.613281 -11.609375 6.15625 -11.609375 C 6.988281 -11.609375 7.675781 -11.488281 8.21875 -11.25 C 8.757812 -11.007812 9.1875 -10.675781 9.5 -10.25 C 9.820312 -9.820312 10.046875 -9.304688 10.171875 -8.703125 C 10.296875 -8.109375 10.359375 -7.445312 10.359375 -6.71875 L 10.359375 0 Z M 8.28125 0 "/></g></g></g><g fill="#480174" fill-opacity="1"><g transform="translate(279.049314, 27.559492)"><g><path d="M 10.734375 -1.09375 C 10.359375 -0.84375 10 -0.628906 9.65625 -0.453125 C 9.3125 -0.285156 8.972656 -0.148438 8.640625 -0.046875 C 8.304688 0.0546875 7.976562 0.128906 7.65625 0.171875 C 7.332031 0.222656 7.003906 0.25 6.671875 0.25 C 6.078125 0.25 5.515625 0.175781 4.984375 0.03125 C 4.453125 -0.101562 3.957031 -0.296875 3.5 -0.546875 C 3.050781 -0.804688 2.640625 -1.117188 2.265625 -1.484375 C 1.898438 -1.847656 1.585938 -2.25 1.328125 -2.6875 C 1.078125 -3.132812 0.878906 -3.613281 0.734375 -4.125 C 0.597656 -4.632812 0.53125 -5.171875 0.53125 -5.734375 C 0.53125 -6.273438 0.597656 -6.796875 0.734375 -7.296875 C 0.878906 -7.804688 1.082031 -8.28125 1.34375 -8.71875 C 1.601562 -9.164062 1.914062 -9.566406 2.28125 -9.921875 C 2.65625 -10.273438 3.066406 -10.578125 3.515625 -10.828125 C 3.972656 -11.085938 4.46875 -11.285156 5 -11.421875 C 5.53125 -11.566406 6.085938 -11.640625 6.671875 -11.640625 C 7.003906 -11.640625 7.332031 -11.617188 7.65625 -11.578125 C 7.976562 -11.535156 8.304688 -11.460938 8.640625 -11.359375 C 8.972656 -11.253906 9.3125 -11.113281 9.65625 -10.9375 C 10 -10.769531 10.359375 -10.554688 10.734375 -10.296875 L 9.859375 -8.5 C 9.523438 -8.738281 9.21875 -8.9375 8.9375 -9.09375 C 8.65625 -9.257812 8.382812 -9.390625 8.125 -9.484375 C 7.875 -9.578125 7.625 -9.640625 7.375 -9.671875 C 7.132812 -9.710938 6.882812 -9.734375 6.625 -9.734375 C 6.0625 -9.734375 5.535156 -9.625 5.046875 -9.40625 C 4.554688 -9.195312 4.128906 -8.90625 3.765625 -8.53125 C 3.410156 -8.164062 3.128906 -7.738281 2.921875 -7.25 C 2.710938 -6.769531 2.609375 -6.265625 2.609375 -5.734375 C 2.609375 -5.191406 2.710938 -4.675781 2.921875 -4.1875 C 3.128906 -3.695312 3.410156 -3.265625 3.765625 -2.890625 C 4.128906 -2.523438 4.554688 -2.226562 5.046875 -2 C 5.535156 -1.78125 6.0625 -1.671875 6.625 -1.671875 C 6.882812 -1.671875 7.132812 -1.6875 7.375 -1.71875 C 7.625 -1.757812 7.875 -1.828125 8.125 -1.921875 C 8.382812 -2.015625 8.65625 -2.140625 8.9375 -2.296875 C 9.21875 -2.453125 9.523438 -2.648438 9.859375 -2.890625 Z M 10.734375 -1.09375 "/></g></g></g><g fill="#480174" fill-opacity="1"><g transform="translate(292.339906, 27.559492)"><g><path d="M 5.046875 6.671875 L 2.828125 6.671875 L 5.546875 0.28125 L 0.03125 -11.359375 L 2.265625 -11.359375 L 6.671875 -2.21875 L 10.5625 -11.359375 L 12.765625 -11.359375 Z M 5.046875 6.671875 "/></g></g></g></g></g></svg>